#!OML:ASF E:\acrobat2\Project_11_07_03\Capture day 1\Session 1\Acrobat.ASF
:FULLY-SPECIFIED
:DEGREES
843
root 5.73616 27.2278 -14.7464 5.39134 8.92278 -0.485401
lowerback 2.92204 -1.24318 6.3903
upperback 3.39486 -1.59241 3.51688
thorax 1.79583 -0.696579 0.0701302
lowerneck 0.825525 -2.44054 -2.32592
upperneck 26.1678 -2.19736 -4.22973
head 7.91722 -1.57473 -1.14266
rclavicle -1.59028e-015 1.43125e-014
rhumerus -38.0298 1.25877 -72.4932
rradius 60.5937
rwrist 7.38942
rhand -29.5625 -11.4681
rfingers 7.12502
rthumb -2.89498 -41.4282
lclavicle -1.59028e-015 1.43125e-014
lhumerus -36.0181 -2.54118 71.6135
lradius 70.4409
lwrist -7.86796
lhand -44.8577 -48.6619
lfingers 7.12502
lthumb -17.6467 -19.4427
rfemur -15.0349 5.56901 14.4498
rtibia 30.8152
rfoot -18.4217 -11.2097
rtoes -35.6391
lfemur -24.7911 -1.35871 -16.6148
ltibia 42.1634
lfoot 1.89441 -15.2331
ltoes 47.6257
844
root 5.73202 27.2387 -14.8099 5.36401 9.01636 -0.888006
lowerback 2.74651 -1.24827 6.48357
upperback 3.25751 -1.60724 3.67734
thorax 1.75398 -0.706949 0.181523
lowerneck 1.02031 -2.46117 -2.29122
upperneck 25.9507 -2.24622 -4.22138
head 7.80754 -1.5896 -1.14215
rclavicle 1.66979e-014 -3.65764e-014
rhumerus -38.4712 0.972687 -72.6301
rradius 60.9461
rwrist 7.57715
rhand -30.0073 -11.2752
rfingers 7.12502
rthumb -3.32454 -41.229
lclavicle 1.66979e-014 -3.65764e-014
lhumerus -36.0381 -2.60687 71.7724
lradius 70.1434
lwrist -7.33135
lhand -44.7098 -48.3835
lfingers 7.12502
lthumb -17.5044 -19.1515
rfemur -14.6737 5.86141 14.5134
rtibia 29.8009
rfoot -17.6558 -11.9904
rtoes -32.9196
lfemur -24.8118 -1.42844 -16.5339
ltibia 42.5261
lfoot 0.274178 -15.3992
ltoes 46.6616
845
root 5.72746 27.25 -14.8767 5.35304 8.94575 -1.27064
lowerback 2.62073 -1.20641 6.5556
upperback 3.1301 -1.55583 3.81313
thorax 1.69713 -0.68475 0.279268
lowerneck 1.2984 -2.47548 -2.26227
upperneck 25.6161 -2.3016 -4.17306
head 7.64443 -1.60255 -1.12449
rclavicle 2.38542e-015 -5.56597e-014
rhumerus -38.8866 0.700062 -72.7704
rradius 61.2859
rwrist 7.83069
rhand -30.3663 -11.216
rfingers 7.12502
rthumb -3.67121 -41.1641
lclavicle 2.38542e-015 -5.56597e-014
lhumerus -36.0781 -2.64988 71.9084
lradius 69.8339
lwrist -6.87579
lhand -44.6181 -48.134
lfingers 7.12502
lthumb -17.4161 -18.8942
rfemur -14.4763 6.01227 14.5784
rtibia 28.8885
rfoot -16.7701 -12.3692
rtoes -29.5854
lfemur -24.7651 -1.38384 -16.4458
ltibia 42.6162
lfoot -1.06714 -15.23
ltoes 45.5207
846
root 5.72212 27.2621 -14.9454 5.33981 8.70228 -1.54314
lowerback 2.55236 -1.11728 6.53124
upperback 3.04317 -1.43964 3.88709
thorax 1.65273 -0.630684 0.36657
lowerneck 1.59055 -2.48403 -2.22229
upperneck 25.2145 -2.35888 -4.09207
head 7.45745 -1.61208 -1.0968
rclavicle -7.95139e-015 -3.18055e-015
rhumerus -39.2369 0.427959 -72.9358
rradius 61.583
rwrist 8.13307
rhand -30.6292 -11.2709
rfingers 7.12502
rthumb -3.92503 -41.2145
lclavicle -7.95139e-015 -3.18055e-015
lhumerus -36.1139 -2.68806 72.0051
lradius 69.5092
lwrist -6.51514
lhand -44.5923 -47.8953
lfingers 7.12502
lthumb -17.3913 -18.6533
rfemur -14.4144 5.96955 14.5595
rtibia 28.1396
rfoot -15.8606 -12.2078
rtoes -26.2422
lfemur -24.6048 -1.29443 -16.4458
ltibia 42.5248
lfoot -2.16308 -14.9946
ltoes 44.4006
847
root 5.71564 27.2752 -15.0152 5.31315 8.28943 -1.65387
lowerback 2.53656 -0.986683 6.36309
upperback 3.01197 -1.26834 3.87984
thorax 1.63869 -0.549615 0.449577
lowerneck 1.81083 -2.47397 -2.16173
upperneck 24.8305 -2.39085 -3.99564
head 7.29008 -1.60796 -1.06771
rclavicle 1.66979e-014 -1.74931e-014
rhumerus -39.4918 0.159292 -73.1434
rradius 61.802
rwrist 8.47173
rhand -30.7973 -11.3421
rfingers 7.12502
rthumb -4.08745 -41.2827
lclavicle 1.66979e-014 -1.74931e-014
lhumerus -36.1366 -2.71496 72.0431
lradius 69.1806
lwrist -6.18616
lhand -44.5508 -47.6727
lfingers 7.12502
lthumb -17.3514 -18.4272
rfemur -14.4776 5.69987 14.4156
rtibia 27.6252
rfoot -15.011 -11.4849
rtoes -23.456
lfemur -24.3194 -1.21902 -16.5895
ltibia 42.3471
lfoot -3.18378 -14.8635
ltoes 43.3279
848
root 5.70778 27.2893 -15.0857 5.27502 7.72171 -1.59757
lowerback 2.56834 -0.829069 6.04071
upperback 3.02167 -1.06087 3.79509
thorax 1.64107 -0.451771 0.538267
lowerneck 2.0224 -2.43844 -2.07411
upperneck 24.4196 -2.38645 -3.91136
head 7.11588 -1.58544 -1.04525
rclavicle 5.56597e-015 -4.45278e-014
rhumerus -39.6566 -0.0627589 -73.403
rradius 61.9267
rwrist 8.8159
rhand -30.885 -11.3746
rfingers 7.12502
rthumb -4.1721 -41.3135
lclavicle 5.56597e-015 -4.45278e-014
lhumerus -36.1963 -2.71802 72.0171
lradius 68.8763
lwrist -5.83392
lhand -44.4764 -47.4516
lfingers 7.12502
lthumb -17.2798 -18.1998
rfemur -14.6855 5.19033 14.1544
rtibia 27.4286
rfoot -14.2952 -10.2881
rtoes -21.426
lfemur -23.9314 -1.17579 -16.8874
ltibia 42.1253
lfoot -4.27569 -14.8404
ltoes 42.2683
849
root 5.69908 27.3042 -15.1564 5.23052 7.01983 -1.39922
lowerback 2.62162 -0.654317 5.59605
upperback 3.05728 -0.831573 3.63927
thorax 1.65726 -0.344106 0.621653
lowerneck 2.12542 -2.35953 -1.9813
upperneck 24.1438 -2.31334 -3.83106
head 7.00656 -1.53325 -1.02544
rclavicle 1.59028e-015 2.54444e-014
rhumerus -39.7495 -0.207382 -73.7258
rradius 61.949
rwrist 9.12366
rhand -30.9071 -11.331
rfingers 7.12502
rthumb -4.1934 -41.2694
lclavicle 1.59028e-015 2.54444e-014
lhumerus -36.3236 -2.70143 71.9287
lradius 68.6075
lwrist -5.42489
lhand -44.3792 -47.1967
lfingers 7.12502
lthumb -17.1862 -17.9368
rfemur -15.0526 4.45413 13.8121
rtibia 27.5967
rfoot -13.7527 -8.78513
rtoes -20.0866
lfemur -23.4638 -1.15222 -17.3172
ltibia 41.8508
lfoot -5.45549 -14.9006
ltoes 41.1842
850
root 5.68981 27.3198 -15.2275 5.18113 6.22631 -1.10291
lowerback 2.67974 -0.47607 5.08051
upperback 3.10143 -0.59837 3.42513
thorax 1.6773 -0.235169 0.684751
lowerneck 2.34649 -2.256 -1.86252
upperneck 23.8095 -2.21176 -3.7556
head 6.85791 -1.46423 -1.00811
rclavicle 3.97569e-015 -1.11319e-014
rhumerus -39.7854 -0.257445 -74.1203
rradius 61.8594
rwrist 9.35439
rhand -30.8894 -11.2037
rfingers 7.12502
rthumb -4.17638 -41.1425
lclavicle 3.97569e-015 -1.11319e-014
lhumerus -36.5299 -2.6792 71.7841
lradius 68.3689
lwrist -4.93815
lhand -44.2898 -46.8688
lfingers 7.12502
lthumb -17.1001 -17.6014
rfemur -15.5685 3.52304 13.4472
rtibia 28.1207
rfoot -13.3857 -7.19369
rtoes -19.2774
lfemur -22.9428 -1.13602 -17.8269
ltibia 41.5105
lfoot -6.6601 -14.9113
ltoes 40.075
851
root 5.67954 27.3365 -15.2995 5.13427 5.4005 -0.784602
lowerback 2.74156 -0.311731 4.57237
upperback 3.13332 -0.382494 3.18128
thorax 1.67991 -0.134856 0.713858
lowerneck 2.76254 -2.13588 -1.7313
upperneck 23.3722 -2.09665 -3.67597
head 6.64321 -1.38485 -0.987697
rclavicle -4.57205e-015 1.27222e-014
rhumerus -39.78 -0.206055 -74.581
rradius 61.678
rwrist 9.47013
rhand -30.8386 -11.0521
rfingers 7.12502
rthumb -4.12727 -40.9919
lclavicle -4.57205e-015 1.27222e-014
lhumerus -36.8141 -2.66245 71.5992
lradius 68.1452
lwrist -4.35585
lhand -44.2636 -46.476
lfingers 7.12502
lthumb -17.075 -17.2064
rfemur -16.2181 2.44145 13.1596
rtibia 28.9604
rfoot -13.1904 -5.73301
rtoes -18.8747
lfemur -22.4138 -1.11445 -18.3242
ltibia 41.1056
lfoot -7.81331 -14.8549
ltoes 38.8771
